HIERARCHY
ROOT Hips
{
	OFFSET -3.958830 18.904000 13.208200
	CHANNELS 6 Xposition Yposition Zposition Zrotation Yrotation Xrotation 
	JOINT LHipJoint
	{
		OFFSET 0.000000 0.000000 0.000000
		CHANNELS 3 Zrotation Yrotation Xrotation
		JOINT LeftUpLeg
		{
			OFFSET 1.800000 -1.400000 0.085000
			CHANNELS 3 Zrotation Yrotation Xrotation
			JOINT LeftLeg
			{
				OFFSET 2.215000 -6.000000 0.000000
				CHANNELS 3 Zrotation Yrotation Xrotation
				JOINT LeftFoot
				{
					OFFSET 2.500000 -6.900000 0.000000
					CHANNELS 3 Zrotation Yrotation Xrotation
					JOINT LeftToeBase
					{
						OFFSET 0.200000 -0.500000 1.950000
						CHANNELS 3 Zrotation Yrotation Xrotation
						End Site
						{
							OFFSET 0.000000 0.000000 0.000000
						}
					}
				}
			}
		}
	}
	JOINT RHipJoint
	{
		OFFSET 0.000000 0.000000 0.000000
		CHANNELS 3 Zrotation Yrotation Xrotation
		JOINT RightUpLeg
		{
			OFFSET -1.800000 -1.400000 0.085000
			CHANNELS 3 Zrotation Yrotation Xrotation
			JOINT RightLeg
			{
				OFFSET -2.215000 -6.000000 0.000000
				CHANNELS 3 Zrotation Yrotation Xrotation
				JOINT RightFoot
				{
					OFFSET -2.500000 -6.900000 0.000000
					CHANNELS 3 Zrotation Yrotation Xrotation
					JOINT RightToeBase
					{
						OFFSET -0.200000 -0.500000 1.950000
						CHANNELS 3 Zrotation Yrotation Xrotation
						End Site
						{
							OFFSET 0.000000 0.000000 0.000000
						}
					}
				}
			}
		}
	}
	JOINT LowerBack
	{
		OFFSET 0.000000 0.000000 0.000000
		CHANNELS 3 Zrotation Yrotation Xrotation
		JOINT Spine
		{
			OFFSET -0.087000 1.940000 -0.288900
			CHANNELS 3 Zrotation Yrotation Xrotation
			JOINT Spine1
			{
				OFFSET 0.000000 1.950000 0.060000
				CHANNELS 3 Zrotation Yrotation Xrotation
				JOINT Neck
				{
					OFFSET 0.000000 0.000000 0.000000
					CHANNELS 3 Zrotation Yrotation Xrotation
					JOINT Neck1
					{
						OFFSET 0.000000 1.600000 0.340000
						CHANNELS 3 Zrotation Yrotation Xrotation
						JOINT Head
						{
							OFFSET 0.000000 1.667000 -0.240000
							CHANNELS 3 Zrotation Yrotation Xrotation
							End Site
							{
								OFFSET 0.000000 0.000000 0.000000
							}
						}
					}
				}
				JOINT LeftShoulder
				{
					OFFSET 0.000000 0.000000 0.000000
					CHANNELS 3 Zrotation Yrotation Xrotation
					JOINT LeftArm
					{
						OFFSET 2.700000 1.550000 -0.730000
						CHANNELS 3 Zrotation Yrotation Xrotation
						JOINT LeftForeArm
						{
							OFFSET 5.450000 0.000000 0.000000
							CHANNELS 3 Zrotation Yrotation Xrotation
							JOINT LeftHand
							{
								OFFSET 3.450000 0.000000 0.000000
								CHANNELS 3 Zrotation Yrotation Xrotation
								JOINT LeftHandIndex1
								{
									OFFSET 0.750000 0.000000 0.000000
									CHANNELS 3 Zrotation Yrotation Xrotation
									End Site
									{
										OFFSET 0.000000 0.000000 0.000000
									}
								}
							}
						}
					}
				}
				JOINT RightShoulder
				{
					OFFSET 0.000000 0.000000 0.000000
					CHANNELS 3 Zrotation Yrotation Xrotation
					JOINT RightArm
					{
						OFFSET -2.700000 1.550000 -0.730000
						CHANNELS 3 Zrotation Yrotation Xrotation
						JOINT RightForeArm
						{
							OFFSET -5.450000 0.000000 0.000000
							CHANNELS 3 Zrotation Yrotation Xrotation
							JOINT RightHand
							{
								OFFSET -3.450000 0.000000 0.000000
								CHANNELS 3 Zrotation Yrotation Xrotation
								JOINT RightHandIndex1
								{
									OFFSET -0.750000 0.000000 0.000000
									CHANNELS 3 Zrotation Yrotation Xrotation
									End Site
									{
										OFFSET 0.000000 0.000000 0.000000
									}
								}
							}
						}
					}
				}
			}
		}
	}
}
MOTION
Frames: 4
Frame Time: 0.016667
0.934220 17.449280 -5.833880 -1.360969 13.067834 -7.598689 -14.858590 12.714093 2.519637 6.694126 1.305263 5.257164 -2.008605 5.358925 10.380122 0.278538 4.008494 3.120571 0.302460 0.468640 0.210440 18.530286 -11.662244 3.628819 -4.274621 -2.183153 5.251357 3.792401 -4.155395 -1.004720 -0.661822 -4.492802 2.724275 0.189780 -0.157370 -0.037990 -4.669944 0.899695 -8.110917 12.683039 1.611744 14.523472 -3.715110 5.026660 26.939209 1.109152 -0.854926 -22.706327 -1.022644 -5.455369 41.428036 4.969360 -7.270860 -10.008880 -6.501828 -29.604494 11.340543 -17.855687 -3.923466 -3.670880 9.653148 -18.945947 -1.657494 -3.323255 2.927181 0.152670 -0.213370 0.216450 -0.026080 6.274346 35.262139 20.962207 34.618809 -1.201844 -2.677704 -1.199844 17.560237 -0.864916 2.506413 -1.369625 0.103220 0.041620 -0.179350 0.105600 
0.960770 17.435990 -5.842220 -1.609738 12.962556 -7.477342 -14.819441 12.648692 2.480151 7.048798 1.289497 5.028349 -2.458848 5.461401 10.432241 0.285799 4.033855 3.119770 0.289630 0.463320 0.180880 18.575902 -11.731487 3.579538 -4.673423 -2.140654 4.671547 4.258093 -4.230104 -0.411669 -0.631905 -4.514531 2.724094 0.191540 -0.129400 -0.026960 -4.786321 1.115286 -8.034042 13.473068 1.707740 14.146671 -4.083899 5.170304 26.914535 1.101594 -0.614253 -22.168695 -0.523364 -5.816900 40.082190 4.701110 -7.456150 -9.394250 -5.781104 -28.908098 11.101268 -17.016273 -4.589070 -3.176945 9.585426 -17.881562 -1.468589 -3.381275 2.935246 0.114820 -0.183230 0.190820 -0.016010 5.495658 34.355189 20.599663 34.324267 -0.296946 -1.882443 -2.193480 16.041263 -0.810869 2.534875 -1.392514 0.108260 0.031610 -0.172470 0.120710 
1.006420 17.422410 -5.855130 -2.462918 12.635828 -7.539831 -14.723407 12.535979 2.414693 8.468402 1.259184 4.844743 -3.576701 5.759589 10.400574 0.308495 4.138857 3.101981 0.281160 0.463420 0.147910 18.672338 -11.868720 3.512178 -5.226203 -2.112217 3.855061 5.226851 -4.419103 0.784539 -0.598111 -4.556249 2.722623 0.198680 -0.090570 -0.022340 -5.048392 1.523472 -7.946971 15.652188 1.670834 13.524132 -5.316181 5.520094 27.200546 1.290804 -0.343844 -21.733833 0.081277 -6.238089 38.744639 4.750660 -7.895740 -8.642890 -4.958829 -28.119780 10.836469 -15.137579 -5.154842 -2.559295 9.767473 -16.283084 -1.240960 -3.451304 2.936069 0.070240 -0.150730 0.158160 0.004390 4.243443 33.426625 20.267596 33.497992 1.023652 -0.678891 -3.191557 13.852168 -0.668446 2.574208 -1.418135 0.110380 0.030620 -0.171850 0.142190 
1.052560 17.414170 -5.878910 -3.197684 12.574685 -7.774685 -14.690276 12.550722 2.425878 9.300992 1.252192 4.811566 -4.184168 5.925719 10.228678 0.317968 4.221856 3.089746 0.273340 0.454020 0.125340 18.693157 -11.923793 3.445129 -5.094221 -2.051924 3.072254 5.509138 -4.537684 2.243889 -0.561454 -4.502677 2.747643 0.199990 -0.065860 -0.026880 -5.127461 1.574188 -7.922364 17.166271 1.430327 13.616480 -5.949452 5.521417 27.376424 1.463654 -0.542069 -21.852541 -0.348756 -6.513790 38.271776 4.880450 -8.539670 -8.485560 -4.575284 -27.443073 10.719233 -13.161168 -4.952532 -1.979303 9.959268 -14.401075 -1.031940 -3.499651 2.915131 0.060410 -0.140610 0.139620 0.018440 3.478573 32.993184 20.077325 30.742949 2.246807 0.695879 -3.933387 10.952654 -0.375314 2.632497 -1.402029 0.100960 0.043440 -0.167330 0.152300 
